<svg width="23" height="20" viewBox="0 0 23 20" fill="none" xmlns="http://www.w3.org/2000/svg">
	<path d="M1.33258 10.7751L8.84713 18.2898C9.06163 18.5043 9.34753 18.6221 9.65238 18.6221C9.95756 18.6221 10.2433 18.5042 10.4578 18.2898L11.1401 17.6074C11.3544 17.3932 11.4725 17.1072 11.4725 16.8021C11.4725 16.4973 11.3544 16.2016 11.1401 15.9874L6.75618 11.5939L20.684 11.5939C21.3119 11.5939 21.8081 11.1023 21.8081 10.4742L21.8081 9.50938C21.8081 8.88125 21.3119 8.34007 20.684 8.34007L6.70645 8.34007L11.1399 3.92202C11.3542 3.70752 11.4723 3.42923 11.4723 3.12422C11.4723 2.81954 11.3542 2.5372 11.1399 2.32286L10.4576 1.64262C10.2431 1.42812 9.95739 1.31122 9.65221 1.31122C9.34736 1.31122 9.06146 1.42964 8.84696 1.64415L1.33241 9.15869C1.1174 9.37387 0.999148 9.66112 0.999994 9.96648C0.999317 10.2728 1.1174 10.5603 1.33258 10.7751Z" stroke="#F3F5F6">
	</path>
</svg>
